<?xml version="1.0" encoding="UTF-8"?>
<svg id="Layer_1" data-name="Layer 1" xmlns="http://www.w3.org/2000/svg" viewBox="0 0 194.57 269.57">
  <defs>
    <style>
      .cls-1 {
        fill: #fff;
      }

      .cls-1, .cls-2 {
        stroke: #000;
        stroke-miterlimit: 10;
        stroke-width: 4px;
      }

      .cls-2 {
        fill: none;
      }
    </style>
  </defs>
  <rect class="cls-1" x="2" y="2" width="190.57" height="265.57" rx="12.2" ry="12.2"/>
  <path d="M78.19,84.87c0,.1.01.2.02.29h-.16l.14-.29Z"/>
  <path d="M111.73,82.57c0,.75-.02,1.48-.07,2.21,0,.13,0,.26-.03.38h-33.42c-.01-.09-.02-.19-.02-.29-.06-.75-.08-1.52-.08-2.3,0-11.23,5.16-20.7,12.2-23.63-5.33-1.8-9.16-6.85-9.16-12.78,0-7.46,6.05-13.5,13.5-13.5s13.51,6.04,13.51,13.5c0,5.82-3.69,10.79-8.85,12.69,7.15,2.82,12.42,12.37,12.42,23.72Z"/>
  <path d="M111.84,85.16h-.21c.02-.12.03-.25.03-.38l.18.38Z"/>
  <path class="cls-2" d="M18.39,112.74c3.28,14.34,17.25,16.55,27.46,6.04,12.42-10.47,23.88-10.83,34.84-1.94,11.38,12.5,22.59,12.92,33.61,0,11.15-8.82,22.73-6.6,31.97,1.94,10.09,10.89,29.92,7.07,30.74-6.45"/>
  <path class="cls-2" d="M18.18,151.38c3.28,14.34,17.25,16.55,27.46,6.04,12.42-10.47,23.88-10.83,34.84-1.94,11.38,12.5,22.59,12.92,33.61,0,11.15-8.82,22.73-6.6,31.97,1.94,10.09,10.89,29.92,7.07,30.74-6.45"/>
  <path class="cls-2" d="M17.79,191.96c3.28,14.34,17.25,16.55,27.46,6.04,12.42-10.47,23.88-10.83,34.84-1.94,11.38,12.5,22.59,12.92,33.61,0,11.15-8.82,22.73-6.6,31.97,1.94,10.09,10.89,29.92,7.07,30.74-6.45"/>
  <path class="cls-2" d="M17.57,230.61c3.28,14.34,17.25,16.55,27.46,6.04,12.42-10.47,23.88-10.83,34.84-1.94,11.38,12.5,22.59,12.92,33.61,0,11.15-8.82,22.73-6.6,31.97,1.94,10.09,10.89,29.92,7.07,30.74-6.45"/>
</svg>